grf
version=1
nRows=19
nColumns=37
inDegrees=no
endheader
time	ground_force_1_vx	ground_force_1_vy	ground_force_1_vz	ground_force_1_px	ground_force_1_py	ground_force_1_pz	ground_moment_1_mx	ground_moment_1_my	ground_moment_1_mz	ground_force_2_vx	ground_force_2_vy	ground_force_2_vz	ground_force_2_px	ground_force_2_py	ground_force_2_pz	ground_moment_2_mx	ground_moment_2_my	ground_moment_2_mz	ground_force_3_vx	ground_force_3_vy	ground_force_3_vz	ground_force_3_px	ground_force_3_py	ground_force_3_pz	ground_moment_3_mx	ground_moment_3_my	ground_moment_3_mz	ground_force_4_vx	ground_force_4_vy	ground_force_4_vz	ground_force_4_px	ground_force_4_py	ground_force_4_pz	ground_moment_4_mx	ground_moment_4_my	ground_moment_4_mz
      0.00000000	      0.00000000	     -0.00000000	      0.00000000	      0.00000000	      0.00000000	      0.00000000	      0.00000000	      0.00000000	      0.00000000	      4.32384014	     77.14523315	   -689.05407715	   -360.42098233	  -1065.08167511	      0.00000000	      0.00000000	      0.00000000	   1173.36312602	     -6.03233411	     -8.46780057	   -196.22320557	   -337.99359259	   -729.92346603	      0.00000000	      0.00000000	     -0.00000000	  -1386.28629720	      0.00000000	     -0.00000000	      0.00000000	      0.00000000	      0.00000000	      0.00000000	      0.00000000	      0.00000000	      0.00000000
      0.01000000	      0.00000000	     -0.00000000	      0.00000000	      0.00000000	      0.00000000	      0.00000000	      0.00000000	      0.00000000	      0.00000000	      5.09100485	     77.56144714	   -688.67706299	   -360.31556945	  -1064.41320830	      0.00000000	      0.00000000	      0.00000000	   1323.31626948	     -6.96088249	     -8.92629467	   -194.24549866	   -338.28355671	   -730.06070141	      0.00000000	     -0.00000000	     -0.00000000	  -1308.50408382	      0.00000000	     -0.00000000	      0.00000000	      0.00000000	      0.00000000	      0.00000000	      0.00000000	      0.00000000	      0.00000000
      0.02000000	      0.00000000	     -0.00000000	      0.00000000	      0.00000000	      0.00000000	      0.00000000	      0.00000000	      0.00000000	      0.00000000	      5.35880089	     77.76935577	   -689.24285889	   -359.43900561	  -1064.96305477	      0.00000000	      0.00000000	      0.00000000	   1070.68268291	     -6.87808360	     -9.71538484	   -194.26748657	   -336.00023250	   -730.41183161	      0.00000000	      0.00000000	     -0.00000000	  -1420.47903755	      0.00000000	     -0.00000000	      0.00000000	      0.00000000	      0.00000000	      0.00000000	      0.00000000	      0.00000000	      0.00000000
      0.03000000	      0.00000000	     -0.00000000	      0.00000000	      0.00000000	      0.00000000	      0.00000000	      0.00000000	      0.00000000	      0.00000000	      5.40689135	     77.82370758	   -687.09881592	   -359.06836083	  -1065.05498041	      0.00000000	      0.00000000	      0.00000000	   1227.47882008	     -7.93648667	    -10.29259135	   -195.57417297	   -336.65258864	   -730.12691238	      0.00000000	      0.00000000	     -0.00000000	  -1343.84423871	      0.00000000	     -0.00000000	      0.00000000	      0.00000000	      0.00000000	      0.00000000	      0.00000000	      0.00000000	      0.00000000
      0.04000000	      0.00000000	     -0.00000000	      0.00000000	      0.00000000	      0.00000000	      0.00000000	      0.00000000	      0.00000000	      0.00000000	      5.08499908	     77.53678131	   -681.47387695	   -358.99796834	  -1064.69328528	      0.00000000	      0.00000000	      0.00000000	   1150.28820138	     -7.71783925	    -10.97342901	   -198.93977356	   -335.24749615	   -730.49565241	      0.00000000	     -0.00000000	     -0.00000000	  -1438.29952626	      0.00000000	     -0.00000000	      0.00000000	      0.00000000	      0.00000000	      0.00000000	      0.00000000	      0.00000000	      0.00000000
      0.05000000	      0.00000000	     -0.00000000	      0.00000000	      0.00000000	      0.00000000	      0.00000000	      0.00000000	      0.00000000	      0.00000000	      5.00269222	     76.98134613	   -675.71520996	   -358.34873675	  -1065.03617008	      0.00000000	      0.00000000	      0.00000000	   1084.55987113	     -7.59485778	    -11.87591963	   -205.11334229	   -335.56459809	   -730.33909342	      0.00000000	      0.00000000	     -0.00000000	  -1578.39717489	      0.00000000	     -0.00000000	      0.00000000	      0.00000000	      0.00000000	      0.00000000	      0.00000000	      0.00000000	      0.00000000
      0.06000000	      0.00000000	     -0.00000000	      0.00000000	      0.00000000	      0.00000000	      0.00000000	      0.00000000	      0.00000000	      0.00000000	      5.41499376	     75.99431610	   -666.34423828	   -358.18546714	  -1064.63830016	      0.00000000	      0.00000000	      0.00000000	   1144.80662051	     -6.95341551	    -12.24288975	   -214.75547791	   -335.16736898	   -729.55885829	      0.00000000	     -0.00000000	     -0.00000000	  -1652.77923979	      0.00000000	     -0.00000000	      0.00000000	      0.00000000	      0.00000000	      0.00000000	      0.00000000	      0.00000000	      0.00000000
      0.07000000	      0.00000000	     -0.00000000	      0.00000000	      0.00000000	      0.00000000	      0.00000000	      0.00000000	      0.00000000	      0.00000000	      5.56460094	     75.11814117	   -654.75030518	   -358.62364225	  -1064.01760226	      0.00000000	      0.00000000	      0.00000000	   1105.04731822	     -6.52383725	    -12.79233208	   -225.36322021	   -335.16131022	   -731.71225668	      0.00000000	     -0.00000000	      0.00000000	  -1661.60502669	      0.00000000	     -0.00000000	      0.00000000	      0.00000000	      0.00000000	      0.00000000	      0.00000000	      0.00000000	      0.00000000
      0.08000000	      0.00000000	     -0.00000000	      0.00000000	      0.00000000	      0.00000000	      0.00000000	      0.00000000	      0.00000000	      0.00000000	      6.13753366	     73.33153534	   -642.53564453	   -358.42192303	  -1063.72296573	      0.00000000	      0.00000000	      0.00000000	    995.59080564	     -6.42782327	    -13.21517125	   -238.47055054	   -334.78827653	   -729.28435136	      0.00000000	      0.00000000	     -0.00000000	  -1999.80478673	      0.00000000	     -0.00000000	      0.00000000	      0.00000000	      0.00000000	      0.00000000	      0.00000000	      0.00000000	      0.00000000
      0.09000000	      0.00000000	     -0.00000000	      0.00000000	      0.00000000	      0.00000000	      0.00000000	      0.00000000	      0.00000000	      0.00000000	      6.02564526	     72.25198364	   -630.61834717	   -358.78597696	  -1064.34692638	      0.00000000	      0.00000000	      0.00000000	    810.96028807	     -6.59742617	    -13.60919132	   -250.72109985	   -334.42007925	   -730.19346337	      0.00000000	      0.00000000	     -0.00000000	  -2131.64621563	      0.00000000	     -0.00000000	      0.00000000	      0.00000000	      0.00000000	      0.00000000	      0.00000000	      0.00000000	      0.00000000
      0.10000000	      0.00000000	     -0.00000000	      0.00000000	      0.00000000	      0.00000000	      0.00000000	      0.00000000	      0.00000000	      0.00000000	      6.77999878	     70.43711090	   -614.69372559	   -360.17952522	  -1063.43237361	      0.00000000	      0.00000000	      0.00000000	   1041.74557525	     -6.46803791	    -14.43668690	   -266.21267700	   -334.84086046	   -727.87325095	      0.00000000	      0.00000000	     -0.00000000	  -2195.54563139	      0.00000000	     -0.00000000	      0.00000000	      0.00000000	      0.00000000	      0.00000000	      0.00000000	      0.00000000	      0.00000000
      0.11000000	      0.00000000	     -0.00000000	      0.00000000	      0.00000000	      0.00000000	      0.00000000	      0.00000000	      0.00000000	      0.00000000	      7.31526184	     68.75995636	   -601.14514160	   -361.00374590	  -1061.86181423	      0.00000000	      0.00000000	      0.00000000	    975.50353295	     -6.41935859	    -14.75780145	   -281.60675049	   -335.39139965	   -728.44635824	      0.00000000	     -0.00000000	     -0.00000000	  -2278.61492271	      0.00000000	     -0.00000000	      0.00000000	      0.00000000	      0.00000000	      0.00000000	      0.00000000	      0.00000000	      0.00000000
      0.12000000	      0.00000000	     -0.00000000	      0.00000000	      0.00000000	      0.00000000	      0.00000000	      0.00000000	      0.00000000	      0.00000000	      8.49825668	     66.75014496	   -587.75909424	   -362.28430053	  -1062.22137065	      0.00000000	      0.00000000	      0.00000000	   1089.75383771	     -5.89509386	    -15.72957178	   -298.07693481	   -335.68457739	   -728.66177421	      0.00000000	      0.00000000	     -0.00000000	  -2289.43445902	      0.00000000	     -0.00000000	      0.00000000	      0.00000000	      0.00000000	      0.00000000	      0.00000000	      0.00000000	      0.00000000
      0.13000000	      0.00000000	     -0.00000000	      0.00000000	      0.00000000	      0.00000000	      0.00000000	      0.00000000	      0.00000000	      0.00000000	      9.09434605	     64.75762177	   -573.19079590	   -363.43636514	  -1061.49782104	      0.00000000	      0.00000000	      0.00000000	   1043.74154692	     -4.55573376	    -17.23127325	   -315.56549072	   -336.72900396	   -729.85793566	      0.00000000	      0.00000000	     -0.00000000	  -2547.25567500	      0.00000000	     -0.00000000	      0.00000000	      0.00000000	      0.00000000	      0.00000000	      0.00000000	      0.00000000	      0.00000000
      0.14000000	      0.00000000	     -0.00000000	      0.00000000	      0.00000000	      0.00000000	      0.00000000	      0.00000000	      0.00000000	      0.00000000	      9.79098320	     61.97674942	   -556.77038574	   -364.19040474	  -1061.24682974	      0.00000000	      0.00000000	      0.00000000	   1152.24101266	     -3.96080255	    -19.08622516	   -335.18554688	   -337.09716616	   -727.92661156	      0.00000000	      0.00000000	      0.00000000	  -2621.39307759	      0.00000000	     -0.00000000	      0.00000000	      0.00000000	      0.00000000	      0.00000000	      0.00000000	      0.00000000	      0.00000000
      0.15000000	      0.00000000	     -0.00000000	      0.00000000	      0.00000000	      0.00000000	      0.00000000	      0.00000000	      0.00000000	      0.00000000	     10.29921055	     58.48794174	   -536.12719727	   -364.96828701	  -1059.64347668	      0.00000000	      0.00000000	      0.00000000	   1273.50004827	     -3.89426250	    -21.21892895	   -354.03973389	   -337.52869789	   -728.28212230	      0.00000000	      0.00000000	     -0.00000000	  -2681.15005298	      0.00000000	     -0.00000000	      0.00000000	      0.00000000	      0.00000000	      0.00000000	      0.00000000	      0.00000000	      0.00000000
      0.16000000	      0.00000000	     -0.00000000	      0.00000000	      0.00000000	      0.00000000	      0.00000000	      0.00000000	      0.00000000	      0.00000000	      9.90236664	     55.10152054	   -516.61938477	   -365.45775689	  -1059.08498951	      0.00000000	      0.00000000	      0.00000000	   1321.67696329	     -2.95529724	    -24.63509534	   -375.84347534	   -337.29058005	   -726.83004023	      0.00000000	      0.00000000	     -0.00000000	  -2824.71210714	      0.00000000	     -0.00000000	      0.00000000	      0.00000000	      0.00000000	      0.00000000	      0.00000000	      0.00000000	      0.00000000
      0.17000000	      0.00000000	     -0.00000000	      0.00000000	      0.00000000	      0.00000000	      0.00000000	      0.00000000	      0.00000000	      0.00000000	      9.28851509	     52.27983475	   -498.17953491	   -365.27782434	  -1058.47205116	      0.00000000	      0.00000000	      0.00000000	   1202.11511323	     -2.04035046	    -27.52641279	   -394.39154053	   -337.49675285	   -726.74649188	      0.00000000	      0.00000000	     -0.00000000	  -2763.24614793	      0.00000000	     -0.00000000	      0.00000000	      0.00000000	      0.00000000	      0.00000000	      0.00000000	      0.00000000	      0.00000000
      0.18000000	      0.00000000	     -0.00000000	      0.00000000	      0.00000000	      0.00000000	      0.00000000	      0.00000000	      0.00000000	      0.00000000	      8.93096066	     49.68524170	   -480.24621582	   -365.18816413	  -1058.12327788	      0.00000000	      0.00000000	      0.00000000	   1428.46495806	     -1.04445758	    -30.30400839	   -412.46273804	   -337.40170762	   -725.94498022	      0.00000000	      0.00000000	     -0.00000000	  -2877.29904486	      0.00000000	     -0.00000000	      0.00000000	      0.00000000	      0.00000000	      0.00000000	      0.00000000	      0.00000000	      0.00000000
